<svg xmlns="http://www.w3.org/2000/svg" width="618.531" height="508.679" viewBox="0 0 618.531 508.679">
  <g id="undraw_information_tab_re_f0w3" opacity="0.16">
    <path id="Path_1" data-name="Path 1" d="M784.782,248.591c-1.34,4.96.2,12.77.78,17.4.62,4.95-7.96,9.38-12.87,9.66a6.989,6.989,0,0,0-1.3-4.6,11.966,11.966,0,0,1-.96,4.61h-40.97c-5.16-9.71-9.55-22.98-4.81-36.7a14.04,14.04,0,0,1,9.7-12.15l22.34-7.15c8.81,0,19.62,1.25,24.49,7.81a24.575,24.575,0,0,1,3.6,21.12Z" transform="translate(-290.738 -195.661)" fill="#2f2e41"/>
    <path id="Path_2" data-name="Path 2" d="M824.009,677.671a3.564,3.564,0,0,0,2.524-6.2l-.253-.969a9.575,9.575,0,0,1,17.748-.336c4.318,9.846,9.881,20.028,7.267,30.943,17.594-38.227,11.037-85.508-15.81-117.8-7.374-3.971-13.387-11.093-15.014-19.414,3.642,1.2,8.14-1.8,5.374-5.6-1.2-1.45-2.405-2.889-3.6-4.339,13.65-14.818,30.3,8.108,15.31,28.074a114.269,114.269,0,0,1,13.024,19.951,48.045,48.045,0,0,1,2.656-22.341c2.682-6.649,7.775-12.276,12.252-18.044,5.443-7.029,16.813-3.918,17.639,4.928-5.069,1.72-5.659,9.071.166,10.02-1.367,16.484-11.982,31.721-26.732,39.085a114.711,114.711,0,0,1,6.725,47.885c2.435-19.011,22.771-23.812,36.944-31.494a5.549,5.549,0,0,1,8.516,5.54,32.054,32.054,0,0,0-5.589,3.017,4.844,4.844,0,0,0,2.334,8.821c-7.011,17.839-25.461,29.949-44.529,30.064a117.932,117.932,0,0,1-7.7,23.2l-28.3.269c-.1-.313-.2-.637-.293-.951a32.149,32.149,0,0,0,7.826-.541c-7.008-8.139-12.407-12.274-8.483-23.767Z" transform="translate(-290.738 -195.661)" fill="#f2f2f2"/>
    <path id="Path_3" data-name="Path 3" d="M474.867,487.7H463.829l-5.253-42.574h16.291Z" fill="#ffb6b6"/>
    <path id="Path_4" data-name="Path 4" d="M771.43,702.486h-7.916l-1.413-7.473-3.619,7.473H737.489a4.719,4.719,0,0,1-2.682-8.6L751.573,682.3V674.75l17.634,1.052Z" transform="translate(-290.738 -195.661)" fill="#2f2e41"/>
    <path id="Path_5" data-name="Path 5" d="M492.193,410.591l-7.75,7.86L450.438,392.3l11.437-11.6Z" fill="#ffb6b6"/>
    <path id="Path_6" data-name="Path 6" d="M800.639,615.53l-5.557,5.637-6.314-4.241,2.781,7.824L776.81,639.7a4.719,4.719,0,0,1-8.009-4.13l3.525-20.068-5.38-5.3,13.13-11.819Z" transform="translate(-290.738 -195.661)" fill="#2f2e41"/>
    <path id="Path_7" data-name="Path 7" d="M694.636,375.928l33.387-53.119a10.127,10.127,0,0,0-3.091-13.867h0a10.127,10.127,0,0,0-14.282,3.464L677.66,368.646l-21.486,33.329a8.837,8.837,0,1,0,7.317,8.666Z" transform="translate(-290.738 -195.661)" fill="#ffb6b6"/>
    <path id="Path_8" data-name="Path 8" d="M726.1,336.7l2.815-.531a3.856,3.856,0,0,1,4.741-5.463c-3.392-3.537-1.744-9.361.437-13.749,1.577-3.172,3.349-6.306,4.121-9.763,1.172-5.248-.339-11.6-7.338-12.857a12.11,12.11,0,0,0-8.25,1.671c-4.4,2.6-5.388,1.468-8.164,5.652l-1.582,2.94a44.931,44.931,0,0,1-7.216,8.672,22.453,22.453,0,0,0-4.691,6.829,2.26,2.26,0,0,1-.639.809c-1.083.837-2.554.879-3.91,1.057-1.71.225-3.666.949-3.622,3.07a3.682,3.682,0,0,0,1.312,2.642,69.581,69.581,0,0,0,24.816,13.972c2.032.642,4.315,1.174,6.226.232S727.888,337.861,726.1,336.7Z" transform="translate(-290.738 -195.661)" fill="#c3181a"/>
    <path id="Path_9" data-name="Path 9" d="M477.724,242l-65-1-2-15,6-34h51Z" fill="#ffb6b6"/>
    <path id="Path_10" data-name="Path 10" d="M629.462,477.661h-253a23.026,23.026,0,0,1-23-23v-145a23.026,23.026,0,0,1,23-23h253a23.026,23.026,0,0,1,23,23v145A23.026,23.026,0,0,1,629.462,477.661Z" transform="translate(-290.738 -195.661)" fill="#fff"/>
    <path id="Path_11" data-name="Path 11" d="M629.462,477.661h-253a23.026,23.026,0,0,1-23-23v-145a23.026,23.026,0,0,1,23-23h253a23.026,23.026,0,0,1,23,23v145A23.026,23.026,0,0,1,629.462,477.661Zm-253-189a21.024,21.024,0,0,0-21,21v145a21.024,21.024,0,0,0,21,21h253a21.024,21.024,0,0,0,21-21v-145a21.024,21.024,0,0,0-21-21Z" transform="translate(-290.738 -195.661)" fill="#e6e6e6"/>
    <path id="Path_12" data-name="Path 12" d="M650.463,392h-296a1,1,0,0,1,0-2h296a1,1,0,0,1,0,2Z" transform="translate(-290.738 -195.661)" fill="#e6e6e6"/>
    <circle id="Ellipse_1" data-name="Ellipse 1" cx="9" cy="9" r="9" transform="translate(328.724 29)" fill="#f2f2f2"/>
    <circle id="Ellipse_2" data-name="Ellipse 2" cx="9" cy="9" r="9" transform="translate(0 172.3)" fill="#f2f2f2"/>
    <circle id="Ellipse_3" data-name="Ellipse 3" cx="9" cy="9" r="9" transform="translate(185 326.3)" fill="#f2f2f2"/>
    <path id="Path_13" data-name="Path 13" d="M430.383,435.961H399.139a1,1,0,0,1,0-2h31.244a1,1,0,0,1,0,2Z" transform="translate(-290.738 -195.661)" fill="#ccc"/>
    <path id="Path_14" data-name="Path 14" d="M430.383,451.961H399.139a1,1,0,0,1,0-2h31.244a1,1,0,0,1,0,2Z" transform="translate(-290.738 -195.661)" fill="#ccc"/>
    <path id="Path_15" data-name="Path 15" d="M601.383,435.961H570.139a1,1,0,0,1,0-2h31.244a1,1,0,0,1,0,2Z" transform="translate(-290.738 -195.661)" fill="#ccc"/>
    <path id="Path_16" data-name="Path 16" d="M601.383,451.961H570.139a1,1,0,0,1,0-2h31.244a1,1,0,0,1,0,2Z" transform="translate(-290.738 -195.661)" fill="#ccc"/>
    <path id="Path_17" data-name="Path 17" d="M544.383,435.961H513.139a1,1,0,0,1,0-2h31.244a1,1,0,0,1,0,2Z" transform="translate(-290.738 -195.661)" fill="#ccc"/>
    <path id="Path_18" data-name="Path 18" d="M544.383,451.961H513.139a1,1,0,0,1,0-2h31.244a1,1,0,0,1,0,2Z" transform="translate(-290.738 -195.661)" fill="#ccc"/>
    <path id="Path_19" data-name="Path 19" d="M487.383,435.961H456.139a1,1,0,0,1,0-2h31.244a1,1,0,0,1,0,2Z" transform="translate(-290.738 -195.661)" fill="#ccc"/>
    <path id="Path_20" data-name="Path 20" d="M487.383,451.961H456.139a1,1,0,0,1,0-2h31.244a1,1,0,0,1,0,2Z" transform="translate(-290.738 -195.661)" fill="#ccc"/>
    <path id="Path_21" data-name="Path 21" d="M701.462,420.661l-2,27-37.733,67.592a16.355,16.355,0,0,0,1.888,19.414l59.172,53.617s11.632.381,10.653,5.879,5.237,5.237,5.237,5.237l7,5.055,3.786-28.794c-12.722-28.406-31.587-37.071-48-50.175,0,0,6.921-2.057,5.46-4.441s3.125-2.542,3.125-2.542,3.043-.41,3.229-2.626,3.136-2.551,3.136-2.551l16.555-16.665,43.494-2s18.406-46.11-12-76Z" transform="translate(-290.738 -195.661)" fill="#2f2e41"/>
    <path id="Path_22" data-name="Path 22" d="M442.327,288.478,456.724,460l21.2-1.284L485.724,299Z" fill="#2f2e41"/>
    <path id="Path_23" data-name="Path 23" d="M734.1,279.556l24.273-1.25,11.274,17.815s21.213,3.547,19.743,28.543S763.58,371.6,763.58,371.6l1.04,13.017-1.807,5.163.232,2.9,2.465,3.07.254,3.175-2.184,5.024.883,6.716s-21.962,4.36-33.481-4.32-28.519-3.68-28.519-3.68l-.64-8.273,3.331-4.467-1.861-5.826,2.8-5.6,1.459-17.8s-15.957-23.973,2.361-42.029l7.352-12.5,8.226-10.036Z" transform="translate(-290.738 -195.661)" fill="#c3181a"/>
    <path id="Path_24" data-name="Path 24" d="M793.621,387.965l-1.786-62.714a10.127,10.127,0,0,0-10.28-9.807h0a10.127,10.127,0,0,0-9.945,10.821l3.853,65.088L776.136,431a8.837,8.837,0,1,0,10.9,3.134Z" transform="translate(-290.738 -195.661)" fill="#ffb6b6"/>
    <path id="Path_25" data-name="Path 25" d="M797.961,337.866h0a2.986,2.986,0,0,0,.457-3.591,3.873,3.873,0,0,1-.46-2.318,3.567,3.567,0,0,1,.089-.459,5.842,5.842,0,0,0-1.07-5.3c-1.981-2.379-2.937-5.98-3.351-9.191-.453-3.513-.722-7.1-2-10.406-1.847-4.764-6.262-9.01-12.288-6.978a11.761,11.761,0,0,0-6.116,4.97c-3,4.792-3.037,10.585-3.015,16.128l-1.081-2.19a44.969,44.969,0,0,1-3.218,17.691c1.343-.261,2.293,1.544,1.859,2.841s-1.634,2.15-2.662,3.053c-1.3,1.138-2.52,2.827-1.3,4.566a3.682,3.682,0,0,0,2.56,1.466,69.582,69.582,0,0,0,28.4-2.185c2.046-.6,4.239-1.424,5.3-3.27S800.092,337.836,797.961,337.866Z" transform="translate(-290.738 -195.661)" fill="#c3181a"/>
    <circle id="Ellipse_4" data-name="Ellipse 4" cx="23" cy="23" r="23" transform="translate(433.724 33)" fill="#ffb6b6"/>
    <circle id="Ellipse_5" data-name="Ellipse 5" cx="26.819" cy="26.819" r="26.819" transform="translate(191.496)" fill="#c3181a"/>
    <path id="Path_26" data-name="Path 26" d="M508.11,233.238a2.318,2.318,0,0,1-1.855-.928l-5.686-7.582a2.318,2.318,0,0,1,3.71-2.782l3.72,4.96,9.555-14.332a2.319,2.319,0,1,1,3.858,2.572l-11.373,17.059a2.319,2.319,0,0,1-1.865,1.032Z" transform="translate(-290.738 -195.661)" fill="#fff"/>
    <path id="Path_27" data-name="Path 27" d="M560.409,299.085H445.515a10.553,10.553,0,1,1,0-21.106H560.409a10.553,10.553,0,1,1,0,21.106Z" transform="translate(-290.738 -195.661)" fill="#c3181a"/>
    <path id="Path_28" data-name="Path 28" d="M908.078,704.032l-255.357.307a1.191,1.191,0,1,1,0-2.381l255.357-.307a1.191,1.191,0,0,1,0,2.381Z" transform="translate(-290.738 -195.661)" fill="#cacaca"/>
    <path id="Path_29" data-name="Path 29" d="M776.462,245.661v5h-19.9a7.156,7.156,0,0,0-1.17-5.61,12.191,12.191,0,0,1-1.42,5.61c-11.507,3.4-21.165,3.337-29.079,0a4.431,4.431,0,0,1-4.431-4.431h0c0-15.33,12.084-28.247,27.41-28.563a28,28,0,0,1,28.59,27.994Z" transform="translate(-290.738 -195.661)" fill="#2f2e41"/>
    <path id="Path_30" data-name="Path 30" d="M512.462,331.661h-40a4,4,0,0,1,0-8h40a4,4,0,0,1,0,8Z" transform="translate(-290.738 -195.661)" fill="#ccc"/>
    <path id="Path_31" data-name="Path 31" d="M522.462,416.961h-40a4,4,0,0,1,0-8h40a4,4,0,0,1,0,8Z" transform="translate(-290.738 -195.661)" fill="#ccc"/>
    <path id="Path_32" data-name="Path 32" d="M598.462,353.661h-127a4,4,0,0,1,0-8h127a4,4,0,0,1,0,8Z" transform="translate(-290.738 -195.661)" fill="#ccc"/>
    <circle id="Ellipse_6" data-name="Ellipse 6" cx="26.819" cy="26.819" r="26.819" transform="translate(107.401 116.181)" fill="#e6e6e6"/>
  </g>
</svg>
